# xmcd
#
# Track frame offsets:
#	300
#	15371
#	25786
#	48129
#	65764
#	90182
#	105468
#	123536
#	135157
#	150931
#	171019
#	186645
#	197982
#	217889
#	229548
#	249005
#
# Disc length: 3534 seconds
#
# Revision: 1
# Processed by: cddbd v1.5.2PL0 Copyright (c) Steve Scherf et al.
# Submitted via: audiograbber 1.83.01
#
DISCID=bd0dca10
DTITLE=Silvan Zingg Trio - Boogie Woogie Triology
DYEAR=2004
DGENRE=Boogie Woogie
TTITLE0=Jumpin' the 88's
TTITLE1=Eleventh Street Boogie
TTITLE2=Groove It
TTITLE3=Mister Freddie's Blues
TTITLE4=St. Louis Blues
TTITLE5=Boogieology
TTITLE6=Full Steam Ahead
TTITLE7=Maple Leaf Rag
TTITLE8=Mystery Shuffle
TTITLE9=Honky Tonk Train Blues
TTITLE10=Sentimental Journey
TTITLE11=Root Beer Rag
TTITLE12=Boogie Woogie Girl
TTITLE13=Java
TTITLE14=Data Blues
TTITLE15=Ciribiribin
EXTD=
EXTT0=
EXTT1=
EXTT2=
EXTT3=
EXTT4=
EXTT5=
EXTT6=
EXTT7=
EXTT8=
EXTT9=
EXTT10=
EXTT11=
EXTT12=
EXTT13=
EXTT14=
EXTT15=
PLAYORDER=
